<svg width="30" height="30" viewBox="0 0 30 30" fill="none" xmlns="http://www.w3.org/2000/svg">
<path d="M26.2298 12.5C26.2298 21.25 14.9885 28.75 14.9885 28.75C14.9885 28.75 3.74712 21.25 3.74712 12.5C3.74712 9.51631 4.93147 6.65483 7.03963 4.54505C9.14779 2.43526 12.0071 1.25 14.9885 1.25C17.9699 1.25 20.8291 2.43526 22.9373 4.54505C25.0455 6.65483 26.2298 9.51631 26.2298 12.5Z" stroke="#17C2EC" stroke-width="2" stroke-linecap="round" stroke-linejoin="round"/>
<path d="M14.9885 16.25C17.0579 16.25 18.7356 14.5711 18.7356 12.5C18.7356 10.4289 17.0579 8.75 14.9885 8.75C12.919 8.75 11.2413 10.4289 11.2413 12.5C11.2413 14.5711 12.919 16.25 14.9885 16.25Z" stroke="#17C2EC" stroke-width="2" stroke-linecap="round" stroke-linejoin="round"/>
</svg>
