<svg width="49" height="49" viewBox="0 0 49 49" fill="none" xmlns="http://www.w3.org/2000/svg">
<path d="M28.5239 30.0723V7.13091C28.5239 5.78001 27.9873 4.48445 27.0321 3.52922C26.0768 2.57399 24.7813 2.03735 23.4304 2.03735C22.0795 2.03735 20.7839 2.57399 19.8287 3.52922C18.8734 4.48445 18.3368 5.78001 18.3368 7.13091V30.0723C16.7013 31.165 15.4606 32.7548 14.798 34.6068C14.1353 36.4587 14.0858 38.4747 14.6567 40.357C15.2277 42.2392 16.3889 43.888 17.9687 45.0597C19.5486 46.2314 21.4634 46.864 23.4304 46.864C25.3973 46.864 27.3121 46.2314 28.892 45.0597C30.4719 43.888 31.633 42.2392 32.204 40.357C32.775 38.4747 32.7254 36.4587 32.0628 34.6068C31.4001 32.7548 30.1594 31.165 28.5239 30.0723Z" stroke="white" stroke-width="2.99376" stroke-linecap="round" stroke-linejoin="round"/>
</svg>
